<svg xmlns="http://www.w3.org/2000/svg" xmlns:xlink="http://www.w3.org/1999/xlink" width="160" height="26" viewBox="0 0 160 26">
    <defs>
        <path id="mxq06g5y3a" d="M0.001 0L160.001 0 160.001 25.919 0.001 25.919z"/>
    </defs>
    <g fill="none" fill-rule="evenodd">
        <g>
            <g transform="translate(-380 -40) translate(380 40)">
                <mask id="66ubxgra6b" fill="#fff">
                    <use xlink:href="#mxq06g5y3a"/>
                </mask>
                <path fill="#202429" d="M71.156 0c.944.028 1.803.56 2.19 1.39l.004.007 9.175 21.522c.218.55.196 1.14-.057 1.667-.27.566-.778.997-1.428 1.214-.22.076-.521.12-.85.12-1.03 0-1.953-.562-2.297-1.398l-1.985-4.633h-9.837l-1.985 4.635c-.393.85-1.31 1.396-2.337 1.396-.302 0-.569-.038-.843-.118-.656-.22-1.164-.65-1.436-1.216-.253-.526-.273-1.117-.06-1.663l9.182-21.526c.4-.864 1.38-1.432 2.386-1.396zm60.378 0c7.854 0 14.244 5.796 14.244 12.922 0 7.168-6.39 12.997-14.244 12.997h-4.752c-1.326 0-2.402-.985-2.402-2.195V2.194c0-1.23 1.055-2.193 2.402-2.193zM9.99 0c4.324 0 7.84 3.196 7.84 7.12 0 1.487-.496 2.902-1.436 4.109 2.493 1.509 3.974 3.981 3.974 6.657 0 4.43-3.95 8.033-8.806 8.033h-9c-.03 0-.055-.006-.08-.014-.02.008-.048.014-.08.014-1.301 0-2.401-1.005-2.401-2.194V2.195C0 .985 1.077 0 2.403 0zm83.496.398c1.106-.682 2.605-.464 3.344.483l12.804 16.052V2.288c0-1.202 1.07-2.18 2.386-2.18 1.314 0 2.426.998 2.426 2.18v21.413c0 1.205-1.112 2.217-2.426 2.217-.673 0-1.349-.297-1.807-.797-.08-.07-.174-.156-.23-.257L97.319 8.948V23.7c0 1.205-1.092 2.217-2.384 2.217-1.34 0-2.428-.995-2.428-2.217V2.288c-.045-.743.328-1.459.98-1.89zM157.556 0c1.35 0 2.444.985 2.444 2.195v21.529c0 1.21-1.094 2.195-2.443 2.195-1.347 0-2.402-.963-2.402-2.195V2.195C155.155.963 156.21 0 157.557 0zM40.592 0c4.855 0 8.806 3.604 8.806 8.034 0 2.311-1.069 4.425-3.014 5.98.497.37.906.78 1.246 1.242.188.249.365.518.523.805.465.836.682 1.585.682 2.357v5.307c0 1.208-1.096 2.193-2.442 2.193-1.325 0-2.401-.985-2.401-2.193 0-.405-.004-.81-.008-1.212-.008-.995-.018-2.022.025-3.034.022-.473.01-1.015-.23-1.478-.159-.303-.43-.596-.826-.895-.538-.403-1.152-.708-1.776-.883-.86-.24-1.387-.255-2.31-.232-.244.006-.586.01-.965.01h-.892c-.403 0-.799-.002-1.13-.004l-.803-.004v7.732c0 1.208-1.096 2.193-2.442 2.193-1.325 0-2.402-.985-2.402-2.193V2.195C30.232.965 31.287 0 32.634 0zm90.943 4.425h-2.31v17.068h2.308c5.273-.038 9.4-3.8 9.4-8.57 0-4.684-4.214-8.498-9.398-8.498zm-119.976 9.89H4.844v7.177h6.716c1.389-.022 2.59-.65 3.295-1.6.069-.092.132-.188.19-.288l.005-.01c.224-.37.368-.783.433-1.222.024-.16.042-.32.042-.486 0-.16-.018-.315-.04-.47-.235-1.624-1.67-2.886-3.516-3.075l-.038-.004c-.122-.012-.246-.02-.373-.022zM70.97 8.313l-3.076 7.181h6.15L70.97 8.313zM40.59 4.426h-5.515v7.141h5.515c2.185 0 3.962-1.585 3.962-3.533 0-1.991-1.777-3.608-3.962-3.608zm-30.601 0H4.844v5.463H9.99c1.651 0 2.994-1.242 2.994-2.77 0-1.509-1.313-2.693-2.994-2.693z" mask="url(#66ubxgra6b)"/>
            </g>
        </g>
    </g>
</svg>
