<svg xmlns="http://www.w3.org/2000/svg" width="20" height="13" viewBox="0 0 20 13">
    <g fill="none" fill-rule="evenodd">
        <g>
            <g transform="translate(-1518 -18) translate(1518 18.5)">
                <rect width="20" height="12" fill="#4A4F57" rx="6"/>
                <path fill="#FFF" fill-rule="nonzero" d="M5.748 9.112c1.568 0 2.648-1.176 2.648-3.096 0-1.92-1.08-3.048-2.648-3.048S3.1 4.088 3.1 6.016c0 1.92 1.08 3.096 2.648 3.096zm0-1.024c-.88 0-1.44-.808-1.44-2.072 0-1.272.56-2.032 1.44-2.032.88 0 1.44.76 1.44 2.032 0 1.264-.56 2.072-1.44 2.072zM10.24 9V6.6h2.104v-.992H10.24V4.064h2.464V3.08H9.056V9h1.184zm4.18 0V6.6h2.104v-.992H14.42V4.064h2.464V3.08h-3.648V9h1.184z"/>
            </g>
        </g>
    </g>
</svg>
